<?xml version="1.0" encoding="utf-8"?>
<!-- Generator: Adobe Illustrator 25.4.1, SVG Export Plug-In . SVG Version: 6.00 Build 0)  -->
<svg version="1.1" id="Layer_1" xmlns="http://www.w3.org/2000/svg" xmlns:xlink="http://www.w3.org/1999/xlink" x="0px" y="0px"
	 viewBox="0 0 523.8 748.3" style="enable-background:new 0 0 523.8 748.3;" xml:space="preserve">
<style type="text/css">
	.st0{clip-path:url(#SVGID_00000065041553264292784380000006875114388743666342_);}
	.st1{fill:#FFFFFF;}
</style>
<g>
	<g>
		<defs>
			<path id="SVGID_1_" d="M133.8,616.3L133.8,616.3c10.2,9.7,26.3,9.7,36.5,0L384,410.2c19.5-18.5,20.2-49.3,1.7-68.8
				c-0.6-0.6-1.1-1.2-1.7-1.7L168.8,132c-10.1-9.6-26-9.7-36.3-0.2l0,0c-9.9,9.1-10.5,24.5-1.4,34.4c0.4,0.4,0.7,0.8,1.1,1.1
				l196.9,190c9.7,9.3,10.1,24.7,0.9,34.4l0,0c-0.3,0.3-0.6,0.6-0.9,0.9L133.8,581.1c-9.7,9.2-10.1,24.6-0.9,34.3
				C133.2,615.7,133.5,616,133.8,616.3"/>
		</defs>
		<clipPath id="SVGID_00000070821166413661122220000016174160322060089014_">
			<use xlink:href="#SVGID_1_"  style="overflow:visible;"/>
		</clipPath>
		<g style="clip-path:url(#SVGID_00000070821166413661122220000016174160322060089014_);">
			<rect x="0" y="0" class="st1" width="523.8" height="748.3"/>
		</g>
	</g>
</g>
</svg>
