<?xml version="1.0" encoding="utf-8"?>
<!-- Generator: Adobe Illustrator 25.4.1, SVG Export Plug-In . SVG Version: 6.00 Build 0)  -->
<svg version="1.1" id="Layer_1" xmlns="http://www.w3.org/2000/svg" xmlns:xlink="http://www.w3.org/1999/xlink" x="0px" y="0px"
	 viewBox="0 0 525 750" style="enable-background:new 0 0 525 750;" xml:space="preserve">
<style type="text/css">
	.st0{clip-path:url(#SVGID_00000181783945539666517440000004045916046016426143_);}
	.st1{clip-path:url(#SVGID_00000039840052130548546190000013655670430242615730_);}
	.st2{fill:#FFFFFF;}
</style>
<g>
	<defs>
		<rect id="SVGID_1_" x="125" y="125" width="275" height="500"/>
	</defs>
	<defs>
		<path id="SVGID_00000012457805377321146370000005562190569602767493_" d="M390.9,132.3L390.9,132.3c-10.3-9.8-26.3-9.8-36.6,0
			L140.2,338.9c-19.5,18.6-20.3,49.4-1.8,68.9c0,0,0,0,0,0.1c0.6,0.6,1.1,1.2,1.7,1.7l215.6,208.1c10.2,9.7,26.1,9.8,36.4,0.2l0,0
			c9.9-9.1,10.5-24.6,1.4-34.5c-0.4-0.4-0.7-0.8-1.1-1.1L195.1,391.9c-9.8-9.3-10.2-24.7-0.9-34.5c0,0,0,0,0,0
			c0.3-0.3,0.6-0.6,0.9-0.9l195.8-188.9c9.8-9.2,10.2-24.6,0.9-34.4c0,0,0,0,0,0L390.9,132.3"/>
	</defs>
	<clipPath id="SVGID_00000037682265568751277780000009225714974716476095_">
		<use xlink:href="#SVGID_1_"  style="overflow:visible;"/>
	</clipPath>
	
		<clipPath id="SVGID_00000137120055427863481600000000419696808805464749_" style="clip-path:url(#SVGID_00000037682265568751277780000009225714974716476095_);">
		<use xlink:href="#SVGID_00000012457805377321146370000005562190569602767493_"  style="overflow:visible;"/>
	</clipPath>
	<g style="clip-path:url(#SVGID_00000137120055427863481600000000419696808805464749_);">
		<rect x="0" y="0" class="st2" width="525" height="750"/>
	</g>
</g>
</svg>
